name ./resultDataOpenSim/trcMotMarkerGrf/sub10/grf-13-07.mot
datacolumns 19
datarows 10
range 0.49200000 0.52800000
endheader

                time	     ground_force_vx	     ground_force_vy	     ground_force_vz	     ground_force_px	     ground_force_py	     ground_force_pz	   l_ground_force_vx	   l_ground_force_vy	   l_ground_force_vz	   l_ground_force_px	   l_ground_force_py	   l_ground_force_pz	     ground_torque_x	     ground_torque_y	     ground_torque_z	   l_ground_torque_x	   l_ground_torque_y	   l_ground_torque_z	
          0.49200000	         56.86107997	        485.27019465	        -12.71952796	         -0.85108441	          0.00000000	          0.03032007	          0.00000000	          0.00000000	          0.00000000	          0.00000000	          0.00000000	          0.00000000	          0.00000000	          2.84715183	          0.00000000	          0.00000000	          0.00000000	          0.00000000	
          0.49600000	         59.57210074	        492.11116652	        -12.60488913	         -0.85009546	          0.00000000	          0.03049244	          0.00000000	          0.00000000	          0.00000000	          0.00000000	          0.00000000	          0.00000000	          0.00000000	          2.94796585	          0.00000000	          0.00000000	          0.00000000	          0.00000000	
          0.50000000	         61.73444028	        499.41675563	        -12.76249754	         -0.84885222	          0.00000000	          0.03066232	          0.00000000	          0.00000000	          0.00000000	          0.00000000	          0.00000000	          0.00000000	          0.00000000	          3.04169683	          0.00000000	          0.00000000	          0.00000000	          0.00000000	
          0.50400000	         63.53009369	        507.08071785	        -13.34876309	         -0.84736079	          0.00000000	          0.03084544	          0.00000000	          0.00000000	          0.00000000	          0.00000000	          0.00000000	          0.00000000	          0.00000000	          3.11824742	          0.00000000	          0.00000000	          0.00000000	          0.00000000	
          0.50800000	         65.19739093	        515.02070688	        -14.43615074	         -0.84566013	          0.00000000	          0.03105838	          0.00000000	          0.00000000	          0.00000000	          0.00000000	          0.00000000	          0.00000000	          0.00000000	          3.17072851	          0.00000000	          0.00000000	          0.00000000	          0.00000000	
          0.51200000	         66.95809207	        523.20258385	        -15.99659088	         -0.84378012	          0.00000000	          0.03131249	          0.00000000	          0.00000000	          0.00000000	          0.00000000	          0.00000000	          0.00000000	          0.00000000	          3.19671583	          0.00000000	          0.00000000	          0.00000000	          0.00000000	
          0.51600000	         68.95150431	        531.63432563	        -17.90312495	         -0.84176059	          0.00000000	          0.03160820	          0.00000000	          0.00000000	          0.00000000	          0.00000000	          0.00000000	          0.00000000	          0.00000000	          3.19822741	          0.00000000	          0.00000000	          0.00000000	          0.00000000	
          0.52000000	         71.19494786	        540.34169655	        -19.95720105	         -0.83962703	          0.00000000	          0.03193876	          0.00000000	          0.00000000	          0.00000000	          0.00000000	          0.00000000	          0.00000000	          0.00000000	          3.18065943	          0.00000000	          0.00000000	          0.00000000	          0.00000000	
          0.52400000	         73.58612629	        549.33578717	        -21.93708534	         -0.83736983	          0.00000000	          0.03229527	          0.00000000	          0.00000000	          0.00000000	          0.00000000	          0.00000000	          0.00000000	          0.00000000	          3.15118819	          0.00000000	          0.00000000	          0.00000000	          0.00000000	
          0.52800000	         75.94888174	        558.58570639	        -23.65097653	         -0.83495755	          0.00000000	          0.03266561	          0.00000000	          0.00000000	          0.00000000	          0.00000000	          0.00000000	          0.00000000	          0.00000000	          3.11710666	          0.00000000	          0.00000000	          0.00000000	          0.00000000	
